<svg width="1249" height="701" xmlns="http://www.w3.org/2000/svg" xmlns:xlink="http://www.w3.org/1999/xlink" overflow="hidden"><defs><clipPath id="clip0"><rect x="-24" y="5" width="1249" height="701"/></clipPath></defs><g clip-path="url(#clip0)" transform="translate(24 -5)"><text fill="#455F51" font-family="Arial,Arial_MSFontService,sans-serif" font-weight="400" font-size="39" transform="matrix(1 0 0 1 0 56)">Knowledge Artifact Actions Sequence</text><rect x="24.5001" y="112.5" width="248" height="64" stroke="#3B7327" stroke-width="2.66667" stroke-linejoin="round" stroke-miterlimit="10" fill="#549E39"/><text fill="#FFFFFF" font-family="Constantia,Constantia_MSFontService,sans-serif" font-weight="400" font-size="16" transform="translate(50.21 130)">Initiate Reporting Workflow <tspan x="19.08" y="19">based on Named Event </tspan><tspan x="52.7133" y="38">Notifications</tspan></text><rect x="24.5001" y="296.5" width="248" height="64" stroke="#3B7327" stroke-width="2.66667" stroke-linejoin="round" stroke-miterlimit="10" fill="#549E39"/><text fill="#FFFFFF" font-family="Constantia,Constantia_MSFontService,sans-serif" font-weight="400" font-size="16" transform="translate(48.4066 324)">Execute Reporting Workflow <tspan x="73.4067" y="19">Actions </tspan></text><rect x="24.5001" y="504.5" width="248" height="64" stroke="#3B7327" stroke-width="2.66667" stroke-linejoin="round" stroke-miterlimit="10" fill="#549E39"/><text fill="#FFFFFF" font-family="Constantia,Constantia_MSFontService,sans-serif" font-weight="400" font-size="16" transform="translate(39.84 541)">Terminate Reporting Workflow</text><path d="M149.833 176.5 149.833 289.833 147.167 289.833 147.167 176.5ZM152.5 288.5 148.5 296.5 144.5 288.5Z"/><path d="M149.833 360.5 149.833 497.833 147.167 497.833 147.167 360.5ZM152.5 496.5 148.5 504.5 144.5 496.5Z"/><text font-family="Constantia,Constantia_MSFontService,sans-serif" font-weight="400" font-size="24" transform="translate(33.6 655)">Top Level Steps for <tspan x="0" y="29">processing Actions</tspan></text><path d="M475.5 696.5C421.652 696.5 378 689.225 378 680.251L378 350.566C378 341.592 334.348 334.316 280.5 334.316 334.348 334.316 378 327.041 378 318.067L378 96.7495C378 87.7752 421.653 80.5001 475.501 80.5001" stroke="#000000" stroke-width="2.66667" stroke-linejoin="round" stroke-miterlimit="10" fill="none" fill-rule="evenodd"/><rect x="464.5" y="112.5" width="648" height="72" stroke="#3B7327" stroke-width="2.66667" stroke-linejoin="round" stroke-miterlimit="10" fill="#549E39"/><path d="M481.5 132.5C481.5 128.082 485.082 124.5 489.5 124.5L569.5 124.5C573.918 124.5 577.5 128.082 577.5 132.5L577.5 164.5C577.5 168.918 573.918 172.5 569.5 172.5L489.5 172.5C485.082 172.5 481.5 168.918 481.5 164.5Z" stroke="#3B7327" stroke-width="2.66667" stroke-linejoin="round" stroke-miterlimit="10" fill="#D3CBB6" fill-rule="evenodd"/><text font-family="Constantia,Constantia_MSFontService,sans-serif" font-weight="400" font-size="11" transform="translate(494.81 145)">Check-<tspan x="32.8333" y="0">trigger</tspan><tspan x="64.1667" y="0">-</tspan><tspan x="20.8333" y="13">codes</tspan></text><path d="M640.5 132.5C640.5 128.082 644.082 124.5 648.5 124.5L728.5 124.5C732.918 124.5 736.5 128.082 736.5 132.5L736.5 164.5C736.5 168.918 732.918 172.5 728.5 172.5L648.5 172.5C644.082 172.5 640.5 168.918 640.5 164.5Z" stroke="#3B7327" stroke-width="2.66667" stroke-linejoin="round" stroke-miterlimit="10" fill="#D3CBB6" fill-rule="evenodd"/><text font-family="Constantia,Constantia_MSFontService,sans-serif" font-weight="400" font-size="11" transform="translate(671.583 139)">Check-<tspan x="-11.1667" y="13">participant</tspan><tspan x="40.1667" y="13">-</tspan><tspan x="-10.6667" y="26">registration</tspan><tspan fill="#FFFFFF" font-size="16" x="242.017" y="8">Check Eligibility to </tspan><tspan fill="#FFFFFF" font-size="16" x="242.017" y="27">execute other actions</tspan></text><rect x="464.5" y="247.5" width="648" height="72" stroke="#3B7327" stroke-width="2.66667" stroke-linejoin="round" stroke-miterlimit="10" fill="#549E39"/><path d="M481.5 267.5C481.5 263.082 485.082 259.5 489.5 259.5L569.5 259.5C573.918 259.5 577.5 263.082 577.5 267.5L577.5 299.5C577.5 303.918 573.918 307.5 569.5 307.5L489.5 307.5C485.082 307.5 481.5 303.918 481.5 299.5Z" stroke="#3B7327" stroke-width="2.66667" stroke-linejoin="round" stroke-miterlimit="10" fill="#D3CBB6" fill-rule="evenodd"/><text font-family="Constantia,Constantia_MSFontService,sans-serif" font-weight="400" font-size="11" transform="translate(497.06 287)">Create<tspan x="30.5" y="0">-</tspan><tspan x="34.3333" y="0">report</tspan><tspan fill="#FFFFFF" font-size="16" x="417.553" y="-16">Create Report by </tspan><tspan fill="#FFFFFF" font-size="16" x="417.553" y="3">accessing required data </tspan><tspan fill="#FFFFFF" font-size="16" x="417.553" y="22">from EHR</tspan></text><rect x="464.5" y="376.5" width="648" height="72" stroke="#3B7327" stroke-width="2.66667" stroke-linejoin="round" stroke-miterlimit="10" fill="#549E39"/><path d="M481.5 396.5C481.5 392.082 485.082 388.5 489.5 388.5L569.5 388.5C573.918 388.5 577.5 392.082 577.5 396.5L577.5 428.5C577.5 432.918 573.918 436.5 569.5 436.5L489.5 436.5C485.082 436.5 481.5 432.918 481.5 428.5Z" stroke="#3B7327" stroke-width="2.66667" stroke-linejoin="round" stroke-miterlimit="10" fill="#D3CBB6" fill-rule="evenodd"/><text font-family="Constantia,Constantia_MSFontService,sans-serif" font-weight="400" font-size="11" transform="translate(500.393 409)">Anonymize<tspan x="53" y="0">-</tspan><tspan x="13.8333" y="13">report</tspan><tspan fill="#FFFFFF" font-size="16" x="414.219" y="-9">Process Created Report </tspan><tspan fill="#FFFFFF" font-size="16" x="414.219" y="10">based on use case</tspan></text><path d="M606.5 396.5C606.5 392.082 610.082 388.5 614.5 388.5L694.5 388.5C698.918 388.5 702.5 392.082 702.5 396.5L702.5 428.5C702.5 432.918 698.918 436.5 694.5 436.5L614.5 436.5C610.082 436.5 606.5 432.918 606.5 428.5Z" stroke="#3B7327" stroke-width="2.66667" stroke-linejoin="round" stroke-miterlimit="10" fill="#D3CBB6" fill-rule="evenodd"/><text font-family="Constantia,Constantia_MSFontService,sans-serif" font-weight="400" font-size="11" transform="translate(628.047 409)">Deidentify<tspan x="48.8333" y="0">-</tspan><tspan x="11.7466" y="13">report</tspan></text><path d="M734.5 396.5C734.5 392.082 738.082 388.5 742.5 388.5L822.5 388.5C826.918 388.5 830.5 392.082 830.5 396.5L830.5 428.5C830.5 432.918 826.918 436.5 822.5 436.5L742.5 436.5C738.082 436.5 734.5 432.918 734.5 428.5Z" stroke="#3B7327" stroke-width="2.66667" stroke-linejoin="round" stroke-miterlimit="10" fill="#D3CBB6" fill-rule="evenodd"/><text font-family="Constantia,Constantia_MSFontService,sans-serif" font-weight="400" font-size="11" transform="translate(746.797 409)">Pseudonymize<tspan x="67.3334" y="0">-</tspan><tspan x="21" y="13">report</tspan></text><rect x="464.5" y="492.5" width="648" height="72" stroke="#3B7327" stroke-width="2.66667" stroke-linejoin="round" stroke-miterlimit="10" fill="#549E39"/><path d="M478.5 508.5C478.5 504.082 482.082 500.5 486.5 500.5L566.5 500.5C570.918 500.5 574.5 504.082 574.5 508.5L574.5 540.5C574.5 544.918 570.918 548.5 566.5 548.5L486.5 548.5C482.082 548.5 478.5 544.918 478.5 540.5Z" stroke="#3B7327" stroke-width="2.66667" stroke-linejoin="round" stroke-miterlimit="10" fill="#D3CBB6" fill-rule="evenodd"/><text font-family="Constantia,Constantia_MSFontService,sans-serif" font-weight="400" font-size="11" transform="translate(489.82 528)">Validate-<tspan x="42.3333" y="0">report</tspan><tspan fill="#FFFFFF" font-size="16" x="421.553" y="-16">Validate Report</tspan></text><rect x="463.5" y="608.5" width="648" height="72" stroke="#3B7327" stroke-width="2.66667" stroke-linejoin="round" stroke-miterlimit="10" fill="#549E39"/><path d="M605.5 628.5C605.5 624.082 609.082 620.5 613.5 620.5L693.5 620.5C697.918 620.5 701.5 624.082 701.5 628.5L701.5 660.5C701.5 664.918 697.918 668.5 693.5 668.5L613.5 668.5C609.082 668.5 605.5 664.918 605.5 660.5Z" stroke="#3B7327" stroke-width="2.66667" stroke-linejoin="round" stroke-miterlimit="10" fill="#D3CBB6" fill-rule="evenodd"/><text font-family="Constantia,Constantia_MSFontService,sans-serif" font-weight="400" font-size="11" transform="translate(619.712 647)">Submit-<tspan x="37.3333" y="0">report</tspan><tspan fill="#FFFFFF" font-size="16" x="291.66" y="-15">Transmit Report</tspan></text><path d="M481.5 625.5C481.5 621.082 485.082 617.5 489.5 617.5L569.5 617.5C573.918 617.5 577.5 621.082 577.5 625.5L577.5 657.5C577.5 661.918 573.918 665.5 569.5 665.5L489.5 665.5C485.082 665.5 481.5 661.918 481.5 657.5Z" stroke="#3B7327" stroke-width="2.66667" stroke-linejoin="round" stroke-miterlimit="10" fill="#D3CBB6" fill-rule="evenodd"/><text font-family="Constantia,Constantia_MSFontService,sans-serif" font-weight="400" font-size="11" transform="translate(494.06 645)">Encrypt<tspan x="36.5" y="0">-</tspan><tspan x="40.3333" y="0">report</tspan></text><path d="M789.833 184.5 789.833 241.327 787.167 241.327 787.167 184.5ZM792.5 239.993 788.5 247.993 784.5 239.993Z"/><path d="M789.833 319.5 789.833 369.188 787.167 369.188 787.167 319.5ZM792.5 367.855 788.5 375.855 784.5 367.855Z"/><path d="M789.833 448.5 789.833 485.58 787.167 485.58 787.167 448.5ZM792.5 484.247 788.5 492.247 784.5 484.247Z"/><path d="M1.33321-0.0183458 1.84904 37.4677-0.817376 37.5043-1.33321 0.0183458ZM4.49711 36.0977 0.607559 44.152-3.50214 36.2078Z" transform="matrix(-1 0 0 1 788.108 564.5)"/><text font-family="Constantia,Constantia_MSFontService,sans-serif" font-weight="400" font-size="24" transform="translate(283.268 145)">Step 1<tspan x="-2.75958" y="172">Step 2</tspan><tspan x="-1.37491" y="398">Step 3</tspan><tspan x="850.84" y="4">Step 2a</tspan><tspan x="850.84" y="140">Step 2b</tspan><tspan x="850.84" y="270">Step 2c</tspan><tspan x="850.84" y="386">Step 2d</tspan><tspan x="848.148" y="502">Step 2e</tspan></text></g></svg>