<svg width="1215" height="613" xmlns="http://www.w3.org/2000/svg" xmlns:xlink="http://www.w3.org/1999/xlink" overflow="hidden"><defs><clipPath id="clip0"><rect x="59" y="95" width="1215" height="613"/></clipPath></defs><g clip-path="url(#clip0)" transform="translate(-59 -95)"><path d="M471.249 220.5 471.249 334.647C471.249 335.384 470.652 335.98 469.916 335.98L232.5 335.98 233.833 334.647 233.833 442.127 231.167 442.127 231.167 334.647C231.167 333.911 231.764 333.314 232.5 333.314L469.916 333.314 468.583 334.647 468.583 220.5ZM236.5 440.794 232.5 448.794 228.5 440.794Z"/><rect x="61.5001" y="123.5" width="138" height="117" stroke="#3B7327" stroke-width="2.66667" stroke-linejoin="round" stroke-miterlimit="10" fill="#D7E2DC"/><text font-family="Constantia,Constantia_MSFontService,sans-serif" font-weight="700" font-size="16" transform="translate(112.795 177)">EHR <tspan x="-41.9133" y="19">(FHIR Enabled)</tspan></text><rect x="401.5" y="143.5" width="137" height="77" stroke="#3B7327" stroke-width="2.66667" stroke-linejoin="round" stroke-miterlimit="10" fill="#D7E2DC"/><text font-family="Constantia,Constantia_MSFontService,sans-serif" font-weight="700" font-size="16" transform="translate(436.751 167)">Backend <tspan x="5.40668" y="19">Service</tspan><tspan x="17.48" y="38">App</tspan></text><path d="M293.5 331.5C293.5 320.454 307.827 311.5 325.5 311.5 343.173 311.5 357.5 320.454 357.5 331.5 357.5 342.546 343.173 351.5 325.5 351.5 307.827 351.5 293.5 342.546 293.5 331.5Z" stroke="#3B7327" stroke-width="2.66667" stroke-linejoin="round" stroke-miterlimit="10" fill="#FFFF00" fill-rule="evenodd"/><text font-family="Constantia,Constantia_MSFontService,sans-serif" font-weight="400" font-size="16" transform="translate(317.213 336)">S2</text><path d="M0-1.33333 101.064-1.33333C101.8-1.33333 102.397-0.73638 102.397 0L102.397 0.251444 101.064-1.08189 195.461-1.08189 195.461 1.58478 101.064 1.58478C100.328 1.58478 99.7306 0.987823 99.7306 0.251444L99.7306 0 101.064 1.33333 0 1.33333ZM194.128-3.74856 202.128 0.251444 194.128 4.25144Z" fill="#3B7426" transform="matrix(-1 1.22465e-16 1.22465e-16 1 401.628 181.5)"/><path d="M268.5 181.5C268.5 170.454 282.827 161.5 300.5 161.5 318.173 161.5 332.5 170.454 332.5 181.5 332.5 192.546 318.173 201.5 300.5 201.5 282.827 201.5 268.5 192.546 268.5 181.5Z" stroke="#3B7327" stroke-width="2.66667" stroke-linejoin="round" stroke-miterlimit="10" fill="#FFFF00" fill-rule="evenodd"/><text font-family="Constantia,Constantia_MSFontService,sans-serif" font-weight="400" font-size="16" transform="translate(293.019 187)">S1</text><path d="M593.5 96.5001 593.5 638.518" stroke="#FF0000" stroke-width="3.33333" stroke-linejoin="round" stroke-miterlimit="10" stroke-dasharray="13.3333 10" fill="none" fill-rule="evenodd"/><text fill="#FF0000" font-family="Constantia,Constantia_MSFontService,sans-serif" font-weight="400" font-size="24" transform="translate(442.711 597)">Healthcare <tspan x="0" y="29">Organization</tspan></text><rect x="163.5" y="448.5" width="138" height="77" stroke="#3B7327" stroke-width="2.66667" stroke-linejoin="round" stroke-miterlimit="10" fill="#D7E2DC"/><text font-family="Constantia,Constantia_MSFontService,sans-serif" font-weight="700" font-size="16" transform="translate(191.252 482)">Data/Trust <tspan x="9.82668" y="19">Services</tspan></text><rect x="400.5" y="448.5" width="137" height="77" stroke="#3B7327" stroke-width="2.66667" stroke-linejoin="round" stroke-miterlimit="10" fill="#D7E2DC"/><text font-family="Constantia,Constantia_MSFontService,sans-serif" font-weight="700" font-size="16" transform="translate(430.831 492)">Data Mart</text><path d="M471.5 220.5 471.5 334.647C471.5 335.383 470.903 335.98 470.167 335.98L469.5 335.98 470.833 334.647 470.833 442.127 468.167 442.127 468.167 334.647C468.167 333.911 468.764 333.314 469.5 333.314L470.167 333.314 468.833 334.647 468.833 220.5ZM473.5 440.794 469.5 448.794 465.5 440.794Z"/><path d="M437.5 375.5C437.5 364.454 451.827 355.5 469.5 355.5 487.173 355.5 501.5 364.454 501.5 375.5 501.5 386.546 487.173 395.5 469.5 395.5 451.827 395.5 437.5 386.546 437.5 375.5Z" stroke="#3B7327" stroke-width="2.66667" stroke-linejoin="round" stroke-miterlimit="10" fill="#FFFF00" fill-rule="evenodd"/><text font-family="Constantia,Constantia_MSFontService,sans-serif" font-weight="400" font-size="16" transform="translate(461.574 381)">S3<tspan font-weight="700" font-size="24" x="411.894" y="-185">Description of Interaction Steps:</tspan></text><path d="M873.468 198.286 965.718 198.286 1057.97 198.286 1150.22 198.286 1242.47 198.286 1242.47 199.286 1150.22 199.286 1057.97 199.286 965.718 199.286 873.468 199.286Z" fill-rule="evenodd"/><text font-family="Constantia,Constantia_MSFontService,sans-serif" font-weight="400" font-size="24" transform="translate(873.468 254)">S1 :  In this Step, the Backend Service <tspan x="0" y="29">App will initiate an extraction </tspan><tspan x="0" y="58">process to get data from an EHR for </tspan><tspan x="0" y="86">one or more patients. </tspan><tspan x="0" y="144">S2: The Backend Service App then </tspan><tspan x="0" y="173">uses the Data/Trust Services to </tspan><tspan x="0" y="202">transform the data if needed from </tspan><tspan x="0" y="230">one data model to another data </tspan><tspan x="0" y="259">model. The step may also involve de</tspan>-<tspan x="0" y="288">identification, anonymization or </tspan><tspan x="0" y="317">pseudonymization.</tspan><tspan x="0" y="374">S3 : Once the data is transformed in </tspan><tspan x="0" y="403">step S2, the data will then be </tspan><tspan x="0" y="432">populated into the data mart.</tspan><tspan fill="#FF0000" x="-205.93" y="-93">Research </tspan><tspan fill="#FF0000" x="-205.93" y="-64">Organization</tspan></text></g></svg>