<svg width="928" height="733" xmlns="http://www.w3.org/2000/svg" xmlns:xlink="http://www.w3.org/1999/xlink" overflow="hidden"><defs><clipPath id="clip0"><rect x="164" y="17" width="928" height="733"/></clipPath></defs><g clip-path="url(#clip0)" transform="translate(-164 -17)"><rect x="411.5" y="127.5" width="156" height="89" stroke="#3B7327" stroke-width="2.66667" stroke-linejoin="round" stroke-miterlimit="10" fill="#D7E2DC"/><text font-family="Constantia,Constantia_MSFontService,sans-serif" font-weight="700" font-size="16" transform="translate(427.203 167)">Backend Service <tspan x="46.3734" y="19">App</tspan></text><path d="M588.5 44.5001 589.098 259.754" stroke="#FF0000" stroke-width="3.33333" stroke-linejoin="round" stroke-miterlimit="10" stroke-dasharray="13.3333 10" fill="none" fill-rule="evenodd"/><text fill="#FF0000" font-family="Constantia,Constantia_MSFontService,sans-serif" font-weight="400" font-size="24" transform="translate(413.144 63)">Healthcare <tspan x="0" y="29">Organization</tspan></text><path d="M287.501 171 404.564 171.173 404.563 172.173 287.499 172ZM403.236 167.671 411.23 171.683 403.224 175.671Z" fill="#3B7426"/><path d="M291.5 174.5C291.5 163.454 304.26 154.5 320 154.5 335.74 154.5 348.5 163.454 348.5 174.5 348.5 185.546 335.74 194.5 320 194.5 304.26 194.5 291.5 185.546 291.5 174.5Z" stroke="#3B7327" stroke-width="2.66667" stroke-linejoin="round" stroke-miterlimit="10" fill="#FFFF00" fill-rule="evenodd"/><text font-family="Constantia,Constantia_MSFontService,sans-serif" font-weight="400" font-size="16" transform="translate(313.404 180)">S1</text><rect x="682.5" y="58.5001" width="156" height="89" stroke="#3B7327" stroke-width="2.66667" stroke-linejoin="round" stroke-miterlimit="10" fill="#D7E2DC"/><text font-family="Constantia,Constantia_MSFontService,sans-serif" font-weight="700" font-size="16" transform="translate(708.078 98)">Trusted Third <tspan x="31.8933" y="19">Party</tspan></text><rect x="777.5" y="285.5" width="156" height="89" stroke="#3B7327" stroke-width="2.66667" stroke-linejoin="round" stroke-miterlimit="10" fill="#D7E2DC"/><text font-family="Constantia,Constantia_MSFontService,sans-serif" font-weight="700" font-size="16" transform="translate(800.695 325)">PHA/Research <tspan x="4.26666" y="19">Organization</tspan></text><path d="M0 0 486.444 0.000104987" stroke="#FF0000" stroke-width="3.33333" stroke-linejoin="round" stroke-miterlimit="10" stroke-dasharray="13.3333 10" fill="none" fill-rule="evenodd" transform="matrix(-1 0 0 1 1091.94 259.5)"/><path d="M0-0.5 70.7451-0.5C71.0213-0.5 71.2451-0.276142 71.2451 0L71.2451 69.1481 70.7451 68.6481 108.642 68.6481 108.642 69.6481 70.7451 69.6481C70.469 69.6481 70.2451 69.4243 70.2451 69.1481L70.2451 0 70.7451 0.5 0 0.5ZM107.308 65.1481 115.308 69.1481 107.308 73.1481Z" fill="#3B7426" transform="matrix(1 0 0 -1 567.5 171.648)"/><text fill="#FF0000" font-family="Constantia,Constantia_MSFontService,sans-serif" font-weight="400" font-size="24" transform="translate(769.854 47)">Trusted Third Party<tspan x="-48.254" y="364">PHA / Research </tspan><tspan x="-48.254" y="393">Organization</tspan></text><path d="M615.5 136.5C615.5 125.454 628.26 116.5 644 116.5 659.74 116.5 672.5 125.454 672.5 136.5 672.5 147.546 659.74 156.5 644 156.5 628.26 156.5 615.5 147.546 615.5 136.5Z" stroke="#3B7327" stroke-width="2.66667" stroke-linejoin="round" stroke-miterlimit="10" fill="#FFFF00" fill-rule="evenodd"/><text font-family="Constantia,Constantia_MSFontService,sans-serif" font-weight="400" font-size="16" transform="translate(635.244 141)">S2<tspan font-weight="700" font-size="21" x="-457.857" y="184">Description of Interaction Steps:</tspan></text><path d="M177.387 327.05 259.637 327.05 341.887 327.05 424.137 327.05 506.387 327.05 506.387 328.05 424.137 328.05 341.887 328.05 259.637 328.05 177.387 328.05Z" fill-rule="evenodd"/><text font-family="Constantia,Constantia_MSFontService,sans-serif" font-weight="400" font-size="21" transform="translate(177.387 351)">S1. The data submission workflow starts <tspan x="0" y="25">after the report is generated by the Data </tspan><tspan x="0" y="51">Collection and Submission Report </tspan><tspan x="0" y="76">Creation workflow and the report is </tspan><tspan x="0" y="102">validated.</tspan><tspan x="0" y="153">S2. The Backend Service App uses the </tspan><tspan x="0" y="179">FHIR APIs to submit the report to the </tspan><tspan x="0" y="204">Trusted Third Party or to the </tspan><tspan x="0" y="230">PHA/Research Organization directly </tspan><tspan x="0" y="256">based on authorities and policies. </tspan><tspan x="0" y="307">S3. The Trusted Third Party forwards the </tspan><tspan x="0" y="332">data to the PHA/Research Organization </tspan><tspan x="0" y="358">based on authorities and policies.</tspan></text><path d="M567.5 172 672.806 172C673.082 172 673.306 172.224 673.306 172.5L673.306 330.106 672.806 329.606 771.445 329.606 771.445 330.606 672.806 330.606C672.53 330.606 672.306 330.382 672.306 330.106L672.306 172.5 672.806 173 567.5 173ZM770.112 326.106 778.112 330.106 770.112 334.106Z" fill="#3B7426"/><path d="M0-0.5 68.7518-0.5C69.0279-0.5 69.2518-0.276142 69.2518 0L69.2518 95.3033 68.7518 94.8033 130.837 94.8033 130.837 95.8033 68.7518 95.8033C68.4756 95.8033 68.2518 95.5794 68.2518 95.3033L68.2518 0 68.7518 0.5 0 0.5ZM129.504 91.3033 137.504 95.3033 129.504 99.3033Z" fill="#3B7426" transform="matrix(1.83697e-16 1 1 -1.83697e-16 760.5 147.5)"/><path d="M919.5 347.5C919.5 353.023 939.2 357.5 963.5 357.5 987.801 357.5 1007.5 353.023 1007.5 347.5L1007.5 407.5C1007.5 413.023 987.801 417.5 963.5 417.5 939.2 417.5 919.5 413.023 919.5 407.5Z" fill="#549E39" fill-rule="evenodd"/><path d="M919.5 347.5C919.5 341.977 939.2 337.5 963.5 337.5 987.801 337.5 1007.5 341.977 1007.5 347.5 1007.5 353.023 987.801 357.5 963.5 357.5 939.2 357.5 919.5 353.023 919.5 347.5Z" fill="#98C588" fill-rule="evenodd"/><path d="M1007.5 347.5C1007.5 353.023 987.801 357.5 963.5 357.5 939.2 357.5 919.5 353.023 919.5 347.5 919.5 341.977 939.2 337.5 963.5 337.5 987.801 337.5 1007.5 341.977 1007.5 347.5L1007.5 407.5C1007.5 413.023 987.801 417.5 963.5 417.5 939.2 417.5 919.5 413.023 919.5 407.5L919.5 347.5" stroke="#3B7327" stroke-width="2.66667" stroke-linejoin="round" stroke-miterlimit="10" fill="none" fill-rule="evenodd"/><text fill="#FFFFFF" font-family="Constantia,Constantia_MSFontService,sans-serif" font-weight="400" font-size="15" transform="translate(947.672 378)">Data <tspan x="-19.1666" y="17">Repository</tspan></text><path d="M828.5 89C828.5 92.5899 849.767 95.5 876 95.5 902.234 95.5 923.5 92.5899 923.5 89L923.5 128C923.5 131.59 902.234 134.5 876 134.5 849.767 134.5 828.5 131.59 828.5 128Z" fill="#549E39" fill-rule="evenodd"/><path d="M828.5 89C828.5 85.4102 849.767 82.5001 876 82.5001 902.234 82.5001 923.5 85.4102 923.5 89 923.5 92.5899 902.234 95.5 876 95.5 849.767 95.5 828.5 92.5899 828.5 89Z" fill="#98C588" fill-rule="evenodd"/><path d="M923.5 89C923.5 92.5899 902.234 95.5 876 95.5 849.767 95.5 828.5 92.5899 828.5 89 828.5 85.4102 849.767 82.5001 876 82.5001 902.234 82.5001 923.5 85.4102 923.5 89L923.5 128C923.5 131.59 902.234 134.5 876 134.5 849.767 134.5 828.5 131.59 828.5 128L828.5 89" stroke="#3B7327" stroke-width="2.66667" stroke-linejoin="round" stroke-miterlimit="10" fill="none" fill-rule="evenodd"/><text fill="#FFFFFF" font-family="Constantia,Constantia_MSFontService,sans-serif" font-weight="400" font-size="15" transform="translate(860.353 108)">Data <tspan x="-19.1666" y="17">Repository</tspan></text><path d="M647.5 300.5C647.5 289.454 660.26 280.5 676 280.5 691.74 280.5 704.5 289.454 704.5 300.5 704.5 311.546 691.74 320.5 676 320.5 660.26 320.5 647.5 311.546 647.5 300.5Z" stroke="#3B7327" stroke-width="2.66667" stroke-linejoin="round" stroke-miterlimit="10" fill="#FFFF00" fill-rule="evenodd"/><text font-family="Constantia,Constantia_MSFontService,sans-serif" font-weight="400" font-size="16" transform="translate(667.273 306)">S2</text><path d="M782.5 213.5C782.5 202.454 795.26 193.5 811 193.5 826.74 193.5 839.5 202.454 839.5 213.5 839.5 224.546 826.74 233.5 811 233.5 795.26 233.5 782.5 224.546 782.5 213.5Z" stroke="#3B7327" stroke-width="2.66667" stroke-linejoin="round" stroke-miterlimit="10" fill="#FFFF00" fill-rule="evenodd"/><text font-family="Constantia,Constantia_MSFontService,sans-serif" font-weight="400" font-size="16" transform="translate(803.085 218)">S3</text></g></svg>