<svg width="1257" height="663" xmlns="http://www.w3.org/2000/svg" xmlns:xlink="http://www.w3.org/1999/xlink" overflow="hidden"><defs><clipPath id="clip0"><rect x="31" y="16" width="1257" height="663"/></clipPath></defs><g clip-path="url(#clip0)" transform="translate(-31 -16)"><path d="M68.5001 49.1667 214.453 49.1668 214.453 51.8335 68.5001 51.8334ZM213.12 46.5002 221.12 50.5002 213.12 54.5002Z"/><text font-family="Constantia,Constantia_MSFontService,sans-serif" font-weight="400" font-size="16" transform="translate(41.6 44)">Workflow activities <tspan x="0" y="19">result in Events</tspan></text><rect x="221.5" y="29.5001" width="167" height="46" stroke="#3B7327" stroke-width="2.66667" stroke-linejoin="round" stroke-miterlimit="10" fill="#549E39"/><text fill="#FFFFFF" font-family="Constantia,Constantia_MSFontService,sans-serif" font-weight="400" font-size="16" transform="translate(238.192 57)">Event Notifications</text><path d="M388.5 51.1667 538.087 51.1668 538.087 53.8335 388.5 53.8334ZM536.754 48.5002 544.754 52.5002 536.754 56.5002Z"/><rect x="544.5" y="29.5001" width="168" height="46" stroke="#3B7327" stroke-width="2.66667" stroke-linejoin="round" stroke-miterlimit="10" fill="#549E39"/><text fill="#FFFFFF" font-family="Constantia,Constantia_MSFontService,sans-serif" font-weight="400" font-size="16" transform="translate(561.857 57)">Evaluate Condition<tspan fill="#000000" x="-146" y="-20">Event Context</tspan></text><path d="M712.5 51.1667 891.157 51.1668 891.157 53.8335 712.5 53.8334ZM889.824 48.5002 897.824 52.5002 889.824 56.5002Z"/><rect x="897.5" y="29.5001" width="167" height="46" stroke="#3B7327" stroke-width="2.66667" stroke-linejoin="round" stroke-miterlimit="10" fill="#549E39"/><text fill="#FFFFFF" font-family="Constantia,Constantia_MSFontService,sans-serif" font-weight="400" font-size="16" transform="translate(927.443 57)">Perform Action<tspan fill="#000000" x="-166.374" y="-19">Condition Met </tspan></text><path d="M629.833 75.5001 629.833 123.57 627.167 123.57 627.167 75.5001ZM632.5 122.237 628.5 130.237 624.5 122.237Z"/><rect x="544.5" y="130.5" width="168" height="46" stroke="#3B7327" stroke-width="2.66667" stroke-linejoin="round" stroke-miterlimit="10" fill="#549E39"/><text fill="#FFFFFF" font-family="Constantia,Constantia_MSFontService,sans-serif" font-weight="400" font-size="16" transform="translate(592.794 149)">Terminate <tspan x="-1.65997" y="19">Processing</tspan><tspan fill="#000000" x="44.75" y="-44">Condition Not </tspan><tspan fill="#000000" x="44.75" y="-25">Met </tspan><tspan fill="#000000" font-size="24" x="496.806" y="-97">Generic ECA </tspan><tspan fill="#000000" font-size="24" x="496.806" y="-68">Rule Execution</tspan></text><path d="M76.5001 296.167 222.453 296.167 222.453 298.833 76.5001 298.833ZM221.12 293.5 229.12 297.5 221.12 301.5Z"/><text font-family="Constantia,Constantia_MSFontService,sans-serif" font-weight="400" font-size="16" transform="translate(49.134 291)">New Diagnosis is <tspan x="0" y="19">entered in EHR by </tspan><tspan x="0" y="38">Practitioner for a </tspan><tspan x="0" y="58">patient </tspan></text><rect x="228.5" y="276.5" width="168" height="46" stroke="#3B7327" stroke-width="2.66667" stroke-linejoin="round" stroke-miterlimit="10" fill="#0070C0"/><text fill="#FFFFFF" font-family="Constantia,Constantia_MSFontService,sans-serif" font-weight="400" font-size="16" transform="translate(260.916 295)">New Diagnosis <tspan x="9.32669" y="19">Notification</tspan></text><path d="M396.5 298.167 546.087 298.167 546.087 300.833 396.5 300.833ZM544.754 295.5 552.754 299.5 544.754 303.5Z"/><rect x="552.5" y="276.5" width="167" height="46" stroke="#3B7327" stroke-width="2.66667" stroke-linejoin="round" stroke-miterlimit="10" fill="#0070C0"/><text fill="#FFFFFF" font-family="Constantia,Constantia_MSFontService,sans-serif" font-weight="400" font-size="16" transform="translate(574.018 295)">Does Patient have <tspan x="3.49335" y="19">Cancer diagnosis </tspan><tspan fill="#000000" x="-151.124" y="-2">Patient, </tspan><tspan fill="#000000" x="-151.124" y="17">Encounter, </tspan><tspan fill="#000000" x="-151.124" y="36">Practitioner</tspan></text><path d="M719.5 298.167 898.157 298.167 898.157 300.833 719.5 300.833ZM896.824 295.5 904.824 299.5 896.824 303.5Z"/><rect x="904.5" y="276.5" width="168" height="46" stroke="#3B7327" stroke-width="2.66667" stroke-linejoin="round" stroke-miterlimit="10" fill="#0070C0"/><text fill="#FFFFFF" font-family="Constantia,Constantia_MSFontService,sans-serif" font-weight="400" font-size="16" transform="translate(922.093 295)">Report Cancer data <tspan x="40.7466" y="19">to PHA</tspan><tspan fill="#000000" x="-162.92" y="-2">New Diagnosis </tspan><tspan fill="#000000" x="-162.92" y="17">indicates Lung </tspan><tspan fill="#000000" x="-162.92" y="36">Cancer </tspan></text><rect x="552.5" y="377.5" width="167" height="46" stroke="#3B7327" stroke-width="2.66667" stroke-linejoin="round" stroke-miterlimit="10" fill="#0070C0"/><text fill="#FFFFFF" font-family="Constantia,Constantia_MSFontService,sans-serif" font-weight="400" font-size="16" transform="translate(600.328 396)">Terminate <tspan x="-1.66003" y="19">Processing</tspan></text><path d="M76.5001 537.167 222.453 537.167 222.453 539.833 76.5001 539.833ZM221.12 534.5 229.12 538.5 221.12 542.5Z"/><text font-family="Constantia,Constantia_MSFontService,sans-serif" font-weight="400" font-size="16" transform="translate(49.7415 532)">A Patient Encounter <tspan x="0" y="19">was closed by </tspan><tspan x="0" y="38">Practitioner</tspan></text><rect x="229.5" y="517.5" width="167" height="46" stroke="#3B7327" stroke-width="2.66667" stroke-linejoin="round" stroke-miterlimit="10" fill="#455F51"/><text fill="#FFFFFF" font-family="Constantia,Constantia_MSFontService,sans-serif" font-weight="400" font-size="16" transform="translate(256.17 536)">Encounter Close <tspan x="14.68" y="19">Notification</tspan></text><path d="M396.5 539.167 546.087 539.167 546.087 541.833 396.5 541.833ZM544.753 536.5 552.753 540.5 544.753 544.5Z"/><rect x="553.5" y="517.5" width="222" height="46" stroke="#3B7327" stroke-width="2.66667" stroke-linejoin="round" stroke-miterlimit="10" fill="#455F51"/><text fill="#FFFFFF" font-family="Constantia,Constantia_MSFontService,sans-serif" font-weight="400" font-size="16" transform="translate(572.942 536)">Is Practitioner enrolled for <tspan x="27.7667" y="19">Healthcare Survey</tspan><tspan fill="#000000" x="-148.943" y="-3">Patient, </tspan><tspan fill="#000000" x="-148.943" y="16">Encounter, </tspan><tspan fill="#000000" x="-148.943" y="35">Practitioner</tspan></text><path d="M775.5 539.167 899.104 539.167 899.104 541.833 775.5 541.833ZM897.771 536.5 905.771 540.5 897.771 544.5Z"/><rect x="905.5" y="517.5" width="167" height="46" stroke="#3B7327" stroke-width="2.66667" stroke-linejoin="round" stroke-miterlimit="10" fill="#455F51"/><text fill="#FFFFFF" font-family="Constantia,Constantia_MSFontService,sans-serif" font-weight="400" font-size="16" transform="translate(914.814 536)">Report Survey data to <tspan x="52.08" y="19">NHCS</tspan><tspan fill="#000000" x="-101.031" y="-4">Yes</tspan></text><rect x="553.5" y="618.5" width="167" height="46" stroke="#3B7327" stroke-width="2.66667" stroke-linejoin="round" stroke-miterlimit="10" fill="#455F51"/><text fill="#FFFFFF" font-family="Constantia,Constantia_MSFontService,sans-serif" font-weight="400" font-size="16" transform="translate(600.935 637)">Terminate <tspan x="-1.66003" y="19">Processing</tspan><tspan fill="#000000" font-size="24" x="488.665" y="-337">Cancer ECA </tspan><tspan fill="#000000" font-size="24" x="488.665" y="-308">Example</tspan><tspan fill="#000000" font-size="24" x="495.888" y="-104">Healthcare </tspan><tspan fill="#000000" font-size="24" x="495.888" y="-75">Survey ECA </tspan><tspan fill="#000000" font-size="24" x="495.888" y="-46">Example</tspan></text><path d="M982.735 75.5001 982.735 153.395C982.735 154.131 982.138 154.728 981.401 154.728L719.167 154.728 719.167 152.061 981.401 152.061 980.068 153.395 980.068 75.5001ZM720.5 157.395 712.5 153.395 720.5 149.395Z" fill="#3B7426"/><text font-family="Constantia,Constantia_MSFontService,sans-serif" font-weight="400" font-size="16" transform="translate(769.21 176)">Completed Performing Action</text><path d="M989.735 322.5 989.735 400.395C989.735 401.131 989.138 401.728 988.401 401.728L726.167 401.728 726.167 399.061 988.401 399.061 987.068 400.395 987.068 322.5ZM727.5 404.395 719.5 400.395 727.5 396.395Z" fill="#3B7426"/><text font-family="Constantia,Constantia_MSFontService,sans-serif" font-weight="400" font-size="16" transform="translate(769.21 416)">Completed Reporting</text><path d="M990.735 563.5 990.735 641.395C990.735 642.131 990.138 642.728 989.401 642.728L727.167 642.728 727.167 640.061 989.401 640.061 988.068 641.395 988.068 563.5ZM728.5 645.395 720.5 641.395 728.5 637.395Z" fill="#3B7426"/><text font-family="Constantia,Constantia_MSFontService,sans-serif" font-weight="400" font-size="16" transform="translate(769.21 665)">Completed Reporting</text></g></svg>