<svg width="1177" height="634" xmlns="http://www.w3.org/2000/svg" xmlns:xlink="http://www.w3.org/1999/xlink" overflow="hidden"><defs><clipPath id="clip0"><rect x="8" y="13" width="1177" height="634"/></clipPath></defs><g clip-path="url(#clip0)" transform="translate(-8 -13)"><text fill="#455F51" font-family="Arial,Arial_MSFontService,sans-serif" font-weight="400" font-size="39" transform="translate(32 64)">MedMorph<tspan x="195.333" y="0">Knowledge Artifact Components</tspan></text><path d="M125.5 181.5 1141.5 181.5 1141.5 568.166 1064.17 645.5 125.5 645.5Z" fill="#549E39" fill-rule="evenodd"/><path d="M1064.17 645.5 1079.63 583.632 1141.5 568.166Z" fill="#447F2E" fill-rule="evenodd"/><path d="M1064.17 645.5 1079.63 583.632 1141.5 568.166 1064.17 645.5 125.5 645.5 125.5 181.5 1141.5 181.5 1141.5 568.166" stroke="#3B7327" stroke-width="2.66667" stroke-linejoin="round" stroke-miterlimit="10" fill="none" fill-rule="evenodd"/><path d="M152.5 231.5C152.5 222.664 159.664 215.5 168.5 215.5L376.5 215.5C385.336 215.5 392.5 222.664 392.5 231.5L392.5 295.5C392.5 304.336 385.336 311.5 376.5 311.5L168.5 311.5C159.664 311.5 152.5 304.336 152.5 295.5Z" stroke="#3B7327" stroke-width="2.66667" stroke-linejoin="round" stroke-miterlimit="10" fill="#D9D9D9" fill-rule="evenodd"/><text font-family="Constantia,Constantia_MSFontService,sans-serif" font-weight="700" font-size="24" transform="translate(210.673 242)">Events</text><path d="M210.673 243.898 229.173 243.898 247.673 243.898 266.173 243.898 284.673 243.898 284.673 244.898 266.173 244.898 247.673 244.898 229.173 244.898 210.673 244.898Z" fill-rule="evenodd"/><text font-family="Constantia,Constantia_MSFontService,sans-serif" font-weight="400" font-size="13" transform="translate(161.242 277)">For <tspan x="22.8333" y="0">example</tspan><tspan x="74.1667" y="0">Encounter</tspan><tspan x="134.667" y="0">-</tspan><tspan x="139.5" y="0">Close, New </tspan><tspan x="0" y="16">Diagnossi</tspan>, Changed Medication</text><path d="M472.5 228.5C472.5 219.664 479.664 212.5 488.5 212.5L696.5 212.5C705.336 212.5 712.5 219.664 712.5 228.5L712.5 292.5C712.5 301.336 705.336 308.5 696.5 308.5L488.5 308.5C479.664 308.5 472.5 301.336 472.5 292.5Z" stroke="#3B7327" stroke-width="2.66667" stroke-linejoin="round" stroke-miterlimit="10" fill="#D9D9D9" fill-rule="evenodd"/><text font-family="Constantia,Constantia_MSFontService,sans-serif" font-weight="700" font-size="24" transform="translate(531.031 240)">Conditions</text><path d="M531.031 241.675 562.531 241.675 594.031 241.675 625.531 241.675 657.031 241.675 657.031 242.675 625.531 242.675 594.031 242.675 562.531 242.675 531.031 242.675Z" fill-rule="evenodd"/><text font-family="Constantia,Constantia_MSFontService,sans-serif" font-weight="400" font-size="13" transform="translate(481.6 275)">For example, verify if diagnosis is part <tspan x="0" y="16">of cancer value set</tspan></text><path d="M796.5 226.5C796.5 217.664 803.664 210.5 812.5 210.5L1020.5 210.5C1029.34 210.5 1036.5 217.664 1036.5 226.5L1036.5 290.5C1036.5 299.336 1029.34 306.5 1020.5 306.5L812.5 306.5C803.664 306.5 796.5 299.336 796.5 290.5Z" stroke="#3B7327" stroke-width="2.66667" stroke-linejoin="round" stroke-miterlimit="10" fill="#D9D9D9" fill-rule="evenodd"/><text font-family="Constantia,Constantia_MSFontService,sans-serif" font-weight="700" font-size="24" transform="translate(854.785 237)">Actions</text><path d="M854.785 239.226 876.035 239.226 897.285 239.226 918.535 239.226 939.785 239.226 939.785 240.226 918.535 240.226 897.285 240.226 876.035 240.226 854.785 240.226Z" fill-rule="evenodd"/><text font-family="Constantia,Constantia_MSFontService,sans-serif" font-weight="400" font-size="13" transform="translate(805.354 273)">For <tspan x="22.8333" y="0">example</tspan><tspan x="74.1667" y="0">collect patient data for </tspan><tspan x="0" y="16">reporting</tspan></text><path d="M152.5 367.5C152.5 358.664 159.664 351.5 168.5 351.5L376.5 351.5C385.336 351.5 392.5 358.664 392.5 367.5L392.5 431.5C392.5 440.336 385.336 447.5 376.5 447.5L168.5 447.5C159.664 447.5 152.5 440.336 152.5 431.5Z" stroke="#3B7327" stroke-width="2.66667" stroke-linejoin="round" stroke-miterlimit="10" fill="#D9D9D9" fill-rule="evenodd"/><text font-family="Constantia,Constantia_MSFontService,sans-serif" font-weight="700" font-size="24" transform="translate(210.673 379)">Metadata</text><path d="M210.673 380.66 237.423 380.66 264.173 380.66 290.923 380.66 317.673 380.66 317.673 381.66 290.923 381.66 264.173 381.66 237.423 381.66 210.673 381.66Z" fill-rule="evenodd"/><text font-family="Constantia,Constantia_MSFontService,sans-serif" font-weight="400" font-size="13" transform="translate(162.201 409)">For <tspan x="22.8333" y="0">example</tspan><tspan x="74.1667" y="0">publisher, purpose, </tspan><tspan x="0" y="16">contact, name, version</tspan></text><path d="M472.5 367.5C472.5 358.664 479.664 351.5 488.5 351.5L696.5 351.5C705.336 351.5 712.5 358.664 712.5 367.5L712.5 431.5C712.5 440.336 705.336 447.5 696.5 447.5L488.5 447.5C479.664 447.5 472.5 440.336 472.5 431.5Z" stroke="#3B7327" stroke-width="2.66667" stroke-linejoin="round" stroke-miterlimit="10" fill="#D9D9D9" fill-rule="evenodd"/><text font-family="Constantia,Constantia_MSFontService,sans-serif" font-weight="700" font-size="24" transform="translate(531.031 378)">ValueSets</text><path d="M531.031 380.221 558.281 380.221 585.531 380.221 612.781 380.221 640.031 380.221 640.031 381.221 612.781 381.221 585.531 381.221 558.281 381.221 531.031 381.221Z" fill-rule="evenodd"/><text font-family="Constantia,Constantia_MSFontService,sans-serif" font-weight="400" font-size="13" transform="translate(481.6 401)">For example, <tspan x="77.5" y="0">valuesets</tspan><tspan x="133" y="0">for cancer </tspan><tspan x="0" y="16">diagnosis which will be used to check if </tspan><tspan x="0" y="32">the patient data </tspan><tspan x="94.6667" y="32">has to</tspan><tspan x="132.5" y="32">be reported</tspan></text><path d="M792.5 376.5C792.5 367.664 799.664 360.5 808.5 360.5L1017.5 360.5C1026.34 360.5 1033.5 367.664 1033.5 376.5L1033.5 440.5C1033.5 449.336 1026.34 456.5 1017.5 456.5L808.5 456.5C799.664 456.5 792.5 449.336 792.5 440.5Z" stroke="#3B7327" stroke-width="2.66667" stroke-linejoin="round" stroke-miterlimit="10" fill="#D9D9D9" fill-rule="evenodd"/><text font-family="Constantia,Constantia_MSFontService,sans-serif" font-weight="700" font-size="24" transform="translate(851.39 387)">Library</text><path d="M851.39 388.733 872.14 388.733 892.89 388.733 913.64 388.733 934.39 388.733 934.39 389.733 913.64 389.733 892.89 389.733 872.14 389.733 851.39 389.733Z" fill-rule="evenodd"/><text font-family="Constantia,Constantia_MSFontService,sans-serif" font-weight="400" font-size="13" transform="translate(801.958 422)">For <tspan x="22.8333" y="0">example</tspan><tspan x="74.1666" y="0">a library of CQL rules to </tspan><tspan x="0" y="16">be used for evaluation of Conditions </tspan></text><path d="M152.5 516.5C152.5 507.664 159.664 500.5 168.5 500.5L376.5 500.5C385.336 500.5 392.5 507.664 392.5 516.5L392.5 580.5C392.5 589.336 385.336 596.5 376.5 596.5L168.5 596.5C159.664 596.5 152.5 589.336 152.5 580.5Z" stroke="#3B7327" stroke-width="2.66667" stroke-linejoin="round" stroke-miterlimit="10" fill="#D9D9D9" fill-rule="evenodd"/><text font-family="Constantia,Constantia_MSFontService,sans-serif" font-weight="700" font-size="24" transform="translate(211.011 527)">Endpoints</text><path d="M211.011 528.922 240.261 528.922 269.511 528.922 298.761 528.922 328.011 528.922 328.011 529.922 298.761 529.922 269.511 529.922 240.261 529.922 211.011 529.922Z" fill-rule="evenodd"/><text font-family="Constantia,Constantia_MSFontService,sans-serif" font-weight="400" font-size="13" transform="translate(161.58 562)">For <tspan x="22.8333" y="0">example</tspan><tspan x="74.1667" y="0">the end point to where </tspan><tspan x="0" y="16">data </tspan><tspan x="28.1667" y="16">has to</tspan><tspan x="66" y="16">be sent</tspan><tspan x="0" y="0">For </tspan><tspan x="22.8333" y="0">example</tspan><tspan x="74.1667" y="0">publisher, purpose, </tspan><tspan x="0" y="16">contact, name, version</tspan></text><path d="M472.5 516.5C472.5 507.664 479.664 500.5 488.5 500.5L696.5 500.5C705.336 500.5 712.5 507.664 712.5 516.5L712.5 580.5C712.5 589.336 705.336 596.5 696.5 596.5L488.5 596.5C479.664 596.5 472.5 589.336 472.5 580.5Z" stroke="#3B7327" stroke-width="2.66667" stroke-linejoin="round" stroke-miterlimit="10" fill="#D9D9D9" fill-rule="evenodd"/><text font-family="Constantia,Constantia_MSFontService,sans-serif" font-weight="700" font-size="24" transform="translate(531.031 527)">Security</text><path d="M531.031 529.327 554.031 529.327 577.031 529.327 600.031 529.327 623.031 529.327 623.031 530.327 600.031 530.327 577.031 530.327 554.031 530.327 531.031 530.327Z" fill-rule="evenodd"/><text font-family="Constantia,Constantia_MSFontService,sans-serif" font-weight="400" font-size="13" transform="translate(481.6 563)">For <tspan x="22.8333" y="0">example</tspan><tspan x="74.1667" y="0">the PKI URL to be used </tspan><tspan x="0" y="16">for encrypting data</tspan></text></g></svg>