<svg width="1246" height="627" xmlns="http://www.w3.org/2000/svg" xmlns:xlink="http://www.w3.org/1999/xlink" overflow="hidden"><defs><clipPath id="clip0"><rect x="16" y="88" width="1246" height="627"/></clipPath></defs><g clip-path="url(#clip0)" transform="translate(-16 -88)"><path d="M593.249 237.5 593.249 351.647C593.249 352.384 592.652 352.98 591.916 352.98L354.5 352.98 355.833 351.647 355.833 459.127 353.167 459.127 353.167 351.647C353.167 350.911 353.764 350.314 354.5 350.314L591.916 350.314 590.583 351.647 590.583 237.5ZM358.5 457.794 354.5 465.794 350.5 457.794Z"/><rect x="61.5001" y="123.5" width="138" height="117" stroke="#3B7327" stroke-width="2.66667" stroke-linejoin="round" stroke-miterlimit="10" fill="#D7E2DC"/><text font-family="Constantia,Constantia_MSFontService,sans-serif" font-weight="700" font-size="16" transform="translate(112.795 177)">EHR <tspan x="-41.9133" y="19">(FHIR Enabled)</tspan></text><rect x="523.5" y="160.5" width="137" height="77" stroke="#3B7327" stroke-width="2.66667" stroke-linejoin="round" stroke-miterlimit="10" fill="#D7E2DC"/><text font-family="Constantia,Constantia_MSFontService,sans-serif" font-weight="700" font-size="16" transform="translate(559.203 185)">Backend <tspan x="5.40668" y="19">Service</tspan><tspan x="17.48" y="38">App</tspan></text><path d="M416.5 349.5C416.5 338.454 430.827 329.5 448.5 329.5 466.173 329.5 480.5 338.454 480.5 349.5 480.5 360.546 466.173 369.5 448.5 369.5 430.827 369.5 416.5 360.546 416.5 349.5Z" stroke="#3B7327" stroke-width="2.66667" stroke-linejoin="round" stroke-miterlimit="10" fill="#FFFF00" fill-rule="evenodd"/><text font-family="Constantia,Constantia_MSFontService,sans-serif" font-weight="400" font-size="16" transform="translate(439.665 354)">S2</text><path d="M524.08 200.282 361.79 200.282C361.054 200.282 360.457 199.685 360.457 198.948L360.457 181.5 361.79 182.833 206.167 182.833 206.167 180.167 361.79 180.167C362.526 180.167 363.123 180.764 363.123 181.5L363.123 198.948 361.79 197.615 524.08 197.615ZM207.5 185.5 199.5 181.5 207.5 177.5Z" fill="#3B7426"/><path d="M390.5 199.5C390.5 188.454 404.827 179.5 422.5 179.5 440.173 179.5 454.5 188.454 454.5 199.5 454.5 210.546 440.173 219.5 422.5 219.5 404.827 219.5 390.5 210.546 390.5 199.5Z" stroke="#3B7327" stroke-width="2.66667" stroke-linejoin="round" stroke-miterlimit="10" fill="#FFFF00" fill-rule="evenodd"/><text font-family="Constantia,Constantia_MSFontService,sans-serif" font-weight="400" font-size="16" transform="translate(415.472 204)">S1</text><path d="M240.5 89.5001 240.5 631.518" stroke="#FF0000" stroke-width="3.33333" stroke-linejoin="round" stroke-miterlimit="10" stroke-dasharray="13.3333 10" fill="none" fill-rule="evenodd"/><text fill="#FF0000" font-family="Constantia,Constantia_MSFontService,sans-serif" font-weight="400" font-size="24" transform="translate(30.934 606)">Healthcare <tspan x="0" y="29">Organization</tspan></text><rect x="286.5" y="466.5" width="137" height="77" stroke="#3B7327" stroke-width="2.66667" stroke-linejoin="round" stroke-miterlimit="10" fill="#D7E2DC"/><text font-family="Constantia,Constantia_MSFontService,sans-serif" font-weight="700" font-size="16" transform="translate(313.704 500)">Data/Trust <tspan x="9.82666" y="19">Services</tspan></text><rect x="522.5" y="466.5" width="138" height="77" stroke="#3B7327" stroke-width="2.66667" stroke-linejoin="round" stroke-miterlimit="10" fill="#D7E2DC"/><text font-family="Constantia,Constantia_MSFontService,sans-serif" font-weight="700" font-size="16" transform="translate(553.283 510)">Data Mart</text><path d="M593.5 237.5 593.5 351.647C593.5 352.383 592.903 352.98 592.167 352.98L591.5 352.98 592.833 351.647 592.833 459.127 590.167 459.127 590.167 351.647C590.167 350.911 590.764 350.314 591.5 350.314L592.167 350.314 590.833 351.647 590.833 237.5ZM595.5 457.794 591.5 465.794 587.5 457.794Z"/><path d="M560.5 393.5C560.5 382.454 574.827 373.5 592.5 373.5 610.173 373.5 624.5 382.454 624.5 393.5 624.5 404.546 610.173 413.5 592.5 413.5 574.827 413.5 560.5 404.546 560.5 393.5Z" stroke="#3B7327" stroke-width="2.66667" stroke-linejoin="round" stroke-miterlimit="10" fill="#FFFF00" fill-rule="evenodd"/><text font-family="Constantia,Constantia_MSFontService,sans-serif" font-weight="400" font-size="16" transform="translate(584.026 398)">S3<tspan font-weight="700" font-size="21" x="279.345" y="-183">Description of Interaction Steps:</tspan></text><path d="M863.371 216.892 945.621 216.892 1027.87 216.892 1110.12 216.892 1192.37 216.892 1192.37 217.892 1110.12 217.892 1027.87 217.892 945.621 217.892 863.371 217.892Z" fill-rule="evenodd"/><text font-family="Constantia,Constantia_MSFontService,sans-serif" font-weight="400" font-size="21" transform="translate(863.371 266)">S1 :  In this Step, the Backend Service App <tspan x="0" y="26">will initiate an extraction process to get </tspan><tspan x="0" y="51">data from an EHR for one or more </tspan><tspan x="0" y="77">patients. </tspan><tspan x="0" y="128">S2: The Backend Service App then uses </tspan><tspan x="0" y="154">the Data/Trust Services to transform the </tspan><tspan x="0" y="179">data if needed from one data model to </tspan><tspan x="0" y="205">another data model. The step may also </tspan><tspan x="0" y="231">involve de</tspan><tspan x="91.7933" y="231">-</tspan><tspan x="99.46" y="231">identification, anonymization </tspan><tspan x="0" y="256">or pseudonymization.</tspan><tspan x="0" y="307">S3 : Once the data is transformed in step </tspan><tspan x="0" y="333">S2, the data will then be populated into </tspan><tspan x="0" y="359">the data mart.</tspan><tspan fill="#FF0000" font-size="24" x="-526.137" y="340">Research </tspan><tspan fill="#FF0000" font-size="24" x="-526.137" y="369">Organization </tspan><tspan fill="#FF0000" font-size="24" x="-526.137" y="398">or its Trusted </tspan><tspan fill="#FF0000" font-size="24" x="-526.137" y="427">Third Party</tspan></text></g></svg>