<svg width="942" height="704" xmlns="http://www.w3.org/2000/svg" xmlns:xlink="http://www.w3.org/1999/xlink" overflow="hidden"><defs><clipPath id="clip0"><rect x="163" y="18" width="942" height="704"/></clipPath></defs><g clip-path="url(#clip0)" transform="translate(-163 -18)"><rect x="383.5" y="40.5001" width="138" height="116" stroke="#3B7327" stroke-width="2.66667" stroke-linejoin="round" stroke-miterlimit="10" fill="#D7E2DC"/><text font-family="Constantia,Constantia_MSFontService,sans-serif" font-weight="700" font-size="16" transform="translate(435.022 94)">EHR <tspan x="-41.9133" y="19">(FHIR Enabled)</tspan></text><rect x="728.5" y="40.5001" width="116" height="116" stroke="#3B7327" stroke-width="2.66667" stroke-linejoin="round" stroke-miterlimit="10" fill="#D7E2DC"/><text font-family="Constantia,Constantia_MSFontService,sans-serif" font-weight="700" font-size="16" transform="translate(744.356 84)">Knowledge <tspan x="13.32" y="19">Artifact </tspan><tspan x="0.5" y="38">Repository</tspan></text><rect x="558.5" y="394.5" width="137" height="77" stroke="#3B7327" stroke-width="2.66667" stroke-linejoin="round" stroke-miterlimit="10" fill="#D7E2DC"/><text font-family="Constantia,Constantia_MSFontService,sans-serif" font-weight="700" font-size="16" transform="translate(594.003 418)">Backend <tspan x="5.40662" y="19">Service</tspan><tspan x="17.48" y="38">App</tspan></text><rect x="912.5" y="227.5" width="136" height="79" stroke="#3B7327" stroke-width="2.66667" stroke-linejoin="round" stroke-miterlimit="10" fill="#D7E2DC"/><text font-family="Constantia,Constantia_MSFontService,sans-serif" font-weight="700" font-size="16" transform="translate(925.437 262)">PHA/Research <tspan x="4.26666" y="19">Organization</tspan></text><path d="M0-0.5 94.71-0.5C94.9862-0.5 95.21-0.276142 95.21 0L95.21 129.333 94.21 129.333 94.21 0 94.71 0.5 0 0.5ZM98.71 128 94.71 136 90.71 128Z" fill="#3B7426" transform="matrix(-1.83697e-16 -1 -1 1.83697e-16 980.5 227.21)"/><text font-family="Constantia,Constantia_MSFontService,sans-serif" font-weight="400" font-size="15" transform="translate(861.165 38)">Curate and publish<tspan x="0" y="17">1.</tspan><tspan x="24" y="17">Trigger Codes</tspan><tspan x="0" y="35">2.</tspan><tspan x="24" y="35">Value sets</tspan><tspan x="0" y="53">3.</tspan><tspan x="24" y="53">Timing parameters for queries</tspan><tspan x="0" y="70">4.</tspan><tspan x="24" y="70">Surveys</tspan><tspan x="0" y="88">5.</tspan><tspan x="24" y="88">Report/Response structures</tspan></text><path d="M952.5 168.5C952.5 157.454 964.588 148.5 979.5 148.5 994.412 148.5 1006.5 157.454 1006.5 168.5 1006.5 179.546 994.412 188.5 979.5 188.5 964.588 188.5 952.5 179.546 952.5 168.5Z" stroke="#3B7327" stroke-width="2.66667" stroke-linejoin="round" stroke-miterlimit="10" fill="#FFFF00" fill-rule="evenodd"/><text font-family="Constantia,Constantia_MSFontService,sans-serif" font-weight="400" font-size="16" transform="translate(971.755 173)">P1</text><path d="M627 394.067 627 275.284C627 275.007 627.224 274.784 627.5 274.784L743.812 274.784 743.312 275.284 743.312 163.167 744.312 163.167 744.312 275.284C744.312 275.56 744.088 275.784 743.812 275.784L627.5 275.784 628 275.284 628 394.067ZM739.812 164.5 743.812 156.5 747.812 164.5Z" fill="#3B7426"/><path d="M786.922 156.5 786.922 432.657C786.922 432.933 786.698 433.157 786.422 433.157L702.167 433.157 702.167 432.157 786.422 432.157 785.922 432.657 785.922 156.5ZM703.5 436.657 695.5 432.657 703.5 428.657Z" fill="#3B7426"/><path d="M638.5 271.5C638.5 260.454 652.827 251.5 670.5 251.5 688.173 251.5 702.5 260.454 702.5 271.5 702.5 282.546 688.173 291.5 670.5 291.5 652.827 291.5 638.5 282.546 638.5 271.5Z" stroke="#3B7327" stroke-width="2.66667" stroke-linejoin="round" stroke-miterlimit="10" fill="#FFFF00" fill-rule="evenodd"/><text font-family="Constantia,Constantia_MSFontService,sans-serif" font-weight="400" font-size="16" transform="translate(661.261 276)">P2</text><path d="M754.5 326.5C754.5 315.454 768.827 306.5 786.5 306.5 804.173 306.5 818.5 315.454 818.5 326.5 818.5 337.546 804.173 346.5 786.5 346.5 768.827 346.5 754.5 337.546 754.5 326.5Z" stroke="#3B7327" stroke-width="2.66667" stroke-linejoin="round" stroke-miterlimit="10" fill="#FFFF00" fill-rule="evenodd"/><text font-family="Constantia,Constantia_MSFontService,sans-serif" font-weight="400" font-size="16" transform="translate(777.823 331)">P3<tspan font-weight="700" x="-604.67" y="-8">Description of Interaction Steps:</tspan></text><path d="M173.152 323.969 255.152 323.969 337.152 323.969 419.152 323.969 419.152 324.969 337.152 324.969 255.152 324.969 173.152 324.969Z" fill-rule="evenodd"/><text font-family="Constantia,Constantia_MSFontService,sans-serif" font-weight="400" font-size="16" transform="translate(173.152 342)">P1. PHA/Research Organization or their designated <tspan x="0" y="19">organization creates the necessary knowledge artifacts </tspan><tspan x="0" y="39">for different reporting/research scenarios and publishes </tspan><tspan x="0" y="58">the artifacts. These may include trigger codes, timing </tspan><tspan x="0" y="77">constraints, report definitions, surveys, value sets </tspan><tspan x="0" y="96">knowledge artifacts etc.</tspan><tspan x="0" y="135">P2. The Backend Service App queries the Knowledge </tspan><tspan x="0" y="154">Artifact Repository for the appropriate artifact.. </tspan><tspan font-weight="700" x="0" y="173">Note</tspan><tspan x="36.02" y="173">: Step P2 could be a result of a out of band </tspan></text><path d="M173.152 515.969 209.152 515.969 209.152 516.969 173.152 516.969Z" fill-rule="evenodd"/><text font-family="Constantia,Constantia_MSFontService,sans-serif" font-weight="400" font-size="16" transform="translate(173.152 534)">notification (<tspan x="90.8267" y="0">e.g.</tspan><tspan x="118.207" y="0">email/sms) that something has </tspan><tspan x="0" y="19">changed</tspan><tspan x="61.7133" y="19">or it could be a response to a subscription </tspan><tspan x="0" y="39">notification.</tspan><tspan x="0" y="77">P3.  The Backend Service App receives the knowledge </tspan><tspan x="0" y="96">artifact in response to the query in step P2.</tspan><tspan x="0" y="135">P4. The Backend Service App subscribes to topics in the </tspan><tspan x="0" y="154">EHR based on the metadata received in step P3 for </tspan><tspan x="0" y="173">reporting. </tspan></text><path d="M0-0.5 118.783-0.5C119.06-0.5 119.283-0.276142 119.283 0L119.283 131.923 118.783 131.423 230.9 131.423 230.9 132.423 118.783 132.423C118.507 132.423 118.283 132.199 118.283 131.923L118.283 0 118.783 0.5 0 0.5ZM229.567 127.923 237.567 131.923 229.567 135.923Z" fill="#3B7426" transform="matrix(-1.83697e-16 -1 -1 1.83697e-16 584.423 394.067)"/><path d="M424.5 216.5C424.5 205.454 438.827 196.5 456.5 196.5 474.173 196.5 488.5 205.454 488.5 216.5 488.5 227.546 474.173 236.5 456.5 236.5 438.827 236.5 424.5 227.546 424.5 216.5Z" stroke="#3B7327" stroke-width="2.66667" stroke-linejoin="round" stroke-miterlimit="10" fill="#FFFF00" fill-rule="evenodd"/><text font-family="Constantia,Constantia_MSFontService,sans-serif" font-weight="400" font-size="16" transform="translate(447.083 221)">P4</text><path d="M714.5 19.5001 715.583 601.519" stroke="#FF0000" stroke-width="3.33333" stroke-linejoin="round" stroke-miterlimit="10" stroke-dasharray="13.3333 10" fill="none" fill-rule="evenodd"/><text fill="#FF0000" font-family="Constantia,Constantia_MSFontService,sans-serif" font-weight="400" font-size="24" transform="translate(573.256 562)">Healthcare <tspan x="0" y="29">Organization</tspan></text></g></svg>