<svg width="951" height="712" xmlns="http://www.w3.org/2000/svg" xmlns:xlink="http://www.w3.org/1999/xlink" overflow="hidden"><defs><clipPath id="clip0"><rect x="163" y="9" width="951" height="712"/></clipPath></defs><g clip-path="url(#clip0)" transform="translate(-163 -9)"><path d="M652.5 80.0001 744.449 80.0001C744.725 80.0001 744.949 80.2239 744.949 80.5001L744.949 154.513 743.949 154.513 743.949 80.5001 744.449 81.0001 652.5 81.0001ZM748.449 153.18 744.449 161.18 740.449 153.18Z" fill="#3B7426"/><text font-family="Constantia,Constantia_MSFontService,sans-serif" font-weight="700" font-size="16" transform="translate(173.236 207)">Description of Interaction Steps:</text><path d="M173.236 207.644 255.236 207.644 337.236 207.644 419.236 207.644 419.236 208.644 337.236 208.644 255.236 208.644 173.236 208.644Z" fill-rule="evenodd"/><text font-family="Constantia,Constantia_MSFontService,sans-serif" font-weight="400" font-size="16" transform="translate(173.236 226)">D1. The data collection and submission report creation <tspan x="0" y="19">workflow is triggered for a specific patient based on the </tspan><tspan x="0" y="39">output of the Notification workflow.</tspan><tspan x="0" y="77">D2. The Backend Service App queries the EHR to </tspan><tspan x="0" y="96">retrieve the necessary data for the patient to create the </tspan><tspan x="0" y="115">submission report. </tspan><tspan x="0" y="154">D3. The EHR returns the data for the queries from step </tspan><tspan x="0" y="173">D2.</tspan><tspan x="0" y="211">D4: The Backend Service App processes the data </tspan><tspan x="0" y="231">returned from the EHR, applying necessary filters and </tspan><tspan x="0" y="250">logic as appropriate.</tspan><tspan x="0" y="288">D5. The Backend Service App based on the type of </tspan><tspan x="0" y="307">submission will invoke the Data/Trust Services to De</tspan><tspan x="361.753" y="307">-</tspan><tspan x="0" y="327">identify or </tspan>Pseudonymize, or<tspan x="201.66" y="327">Anonymize the collected </tspan><tspan x="0" y="346">data. Before generating the report.</tspan><tspan x="0" y="384">D6. The Data/Trust Services return after De</tspan><tspan x="299.747" y="384">-</tspan><tspan x="305.58" y="384">identifying </tspan><tspan x="0" y="403">or  Pseudonymizing or Anonymizing the data based on </tspan><tspan x="0" y="423">the request in Step D5.</tspan><tspan x="0" y="461">D7. The Backend Service App creates the Submission </tspan><tspan x="0" y="480">report from the data collected for submission.</tspan></text><rect x="515.5" y="23.5001" width="137" height="113" stroke="#3B7327" stroke-width="2.66667" stroke-linejoin="round" stroke-miterlimit="10" fill="#D7E2DC"/><text font-family="Constantia,Constantia_MSFontService,sans-serif" font-weight="700" font-size="16" transform="translate(566.738 75)">EHR <tspan x="-41.9133" y="19">(FHIR Enabled)</tspan></text><rect x="666.5" y="160.5" width="156" height="90" stroke="#3B7327" stroke-width="2.66667" stroke-linejoin="round" stroke-miterlimit="10" fill="#D7E2DC"/><text font-family="Constantia,Constantia_MSFontService,sans-serif" font-weight="700" font-size="16" transform="translate(682.965 201)">Backend Service <tspan x="46.3734" y="19">App</tspan></text><path d="M667.118 206.155 584.5 206.155C584.224 206.155 584 205.931 584 205.655L584 143.167 585 143.167 585 205.655 584.5 205.155 667.118 205.155ZM580.5 144.5 584.5 136.5 588.5 144.5Z" fill="#3B7426"/><path d="M717.5 117.5C717.5 106.454 730.26 97.5001 746 97.5001 761.74 97.5001 774.5 106.454 774.5 117.5 774.5 128.546 761.74 137.5 746 137.5 730.26 137.5 717.5 128.546 717.5 117.5Z" stroke="#3B7327" stroke-width="2.66667" stroke-linejoin="round" stroke-miterlimit="10" fill="#FFFF00" fill-rule="evenodd"/><text font-family="Constantia,Constantia_MSFontService,sans-serif" font-weight="400" font-size="16" transform="translate(735.932 122)">D3</text><path d="M810.5 270 821 258.909 821 264.159C835.313 262.52 846.63 257.665 850.797 251.375 857.335 261.244 844.594 271.595 822.339 274.495 821.895 274.553 821.448 274.607 821 274.659L821 279.909Z" fill="#549E39" fill-rule="evenodd"/><path d="M852.5 256.625C852.5 246.339 833.696 238 810.5 238L810.5 227.5C833.696 227.5 852.5 235.839 852.5 246.125Z" fill="#447F2E" fill-rule="evenodd"/><path d="M852.5 256.625C852.5 246.339 833.696 238 810.5 238L810.5 227.5C833.696 227.5 852.5 235.839 852.5 246.125L852.5 256.625C852.5 265.118 839.544 272.535 821 274.659L821 279.909 810.5 270 821 258.909 821 264.159C835.313 262.52 846.63 257.665 850.797 251.375" stroke="#3B7327" stroke-width="2.66667" stroke-linejoin="round" stroke-miterlimit="10" fill="none" fill-rule="evenodd"/><path d="M1099.5 10.5001 1100.58 592.519" stroke="#FF0000" stroke-width="3.33333" stroke-linejoin="round" stroke-miterlimit="10" stroke-dasharray="13.3333 10" fill="none" fill-rule="evenodd"/><text fill="#FF0000" font-family="Constantia,Constantia_MSFontService,sans-serif" font-weight="400" font-size="24" transform="translate(958.328 552)">Healthcare <tspan x="0" y="29">Organization</tspan></text><path d="M2.51791e-07-0.5 201.814-0.499898 201.814 0.500102-2.51791e-07 0.5ZM200.48-3.9999 208.48 0.000104987 200.48 4.0001Z" fill="#3B7426" transform="matrix(-1 0 0 1 1030.98 205.5)"/><path d="M559.5 193.5C559.5 182.454 572.26 173.5 588 173.5 603.74 173.5 616.5 182.454 616.5 193.5 616.5 204.546 603.74 213.5 588 213.5 572.26 213.5 559.5 204.546 559.5 193.5Z" stroke="#3B7327" stroke-width="2.66667" stroke-linejoin="round" stroke-miterlimit="10" fill="#FFFF00" fill-rule="evenodd"/><text font-family="Constantia,Constantia_MSFontService,sans-serif" font-weight="400" font-size="16" transform="translate(577.294 198)">D2</text><path d="M936.5 205.5C936.5 194.454 949.26 185.5 965 185.5 980.74 185.5 993.5 194.454 993.5 205.5 993.5 216.546 980.74 225.5 965 225.5 949.26 225.5 936.5 216.546 936.5 205.5Z" stroke="#3B7327" stroke-width="2.66667" stroke-linejoin="round" stroke-miterlimit="10" fill="#FFFF00" fill-rule="evenodd"/><text font-family="Constantia,Constantia_MSFontService,sans-serif" font-weight="400" font-size="16" transform="translate(956.413 210)">D1</text><rect x="666.5" y="423.5" width="156" height="59" stroke="#3B7327" stroke-width="2.66667" stroke-linejoin="round" stroke-miterlimit="10" fill="#D7E2DC"/><text font-family="Constantia,Constantia_MSFontService,sans-serif" font-weight="700" font-size="16" transform="translate(703.774 448)">Data/Trust <tspan x="9.82666" y="19">Services</tspan></text><path d="M699 250.5 699 417.062 698 417.062 698 250.5ZM702.5 415.728 698.5 423.728 694.5 415.728Z" fill="#3B7426"/><path d="M775.005 423.731 774.039 257.17 775.039 257.164 776.005 423.725ZM770.547 258.523 774.5 250.5 778.546 258.477Z" fill="#3B7426"/><path d="M667.5 374.5C667.5 363.454 681.827 354.5 699.5 354.5 717.173 354.5 731.5 363.454 731.5 374.5 731.5 385.546 717.173 394.5 699.5 394.5 681.827 394.5 667.5 385.546 667.5 374.5Z" stroke="#3B7327" stroke-width="2.66667" stroke-linejoin="round" stroke-miterlimit="10" fill="#FFFF00" fill-rule="evenodd"/><text font-family="Constantia,Constantia_MSFontService,sans-serif" font-weight="400" font-size="16" transform="translate(689.267 380)">D5</text><path d="M748.5 376.5C748.5 365.454 762.827 356.5 780.5 356.5 798.173 356.5 812.5 365.454 812.5 376.5 812.5 387.546 798.173 396.5 780.5 396.5 762.827 396.5 748.5 387.546 748.5 376.5Z" stroke="#3B7327" stroke-width="2.66667" stroke-linejoin="round" stroke-miterlimit="10" fill="#FFFF00" fill-rule="evenodd"/><text font-family="Constantia,Constantia_MSFontService,sans-serif" font-weight="400" font-size="16" transform="translate(769.591 381)">D6</text><path d="M832.5 248.5C832.5 237.454 845.26 228.5 861 228.5 876.74 228.5 889.5 237.454 889.5 248.5 889.5 259.546 876.74 268.5 861 268.5 845.26 268.5 832.5 259.546 832.5 248.5Z" stroke="#3B7327" stroke-width="2.66667" stroke-linejoin="round" stroke-miterlimit="10" fill="#FFFF00" fill-rule="evenodd"/><text font-family="Constantia,Constantia_MSFontService,sans-serif" font-weight="400" font-size="16" transform="translate(850.596 253)">D7</text><path d="M808.5 176.25 818.75 165.403 818.75 170.528C832.862 168.856 843.979 163.872 847.949 157.438 854.118 167.434 841.457 177.833 819.669 180.663 819.364 180.703 819.057 180.741 818.75 180.778L818.75 185.903Z" fill="#549E39" fill-rule="evenodd"/><path d="M849.5 162.563C849.5 152.173 831.144 143.75 808.5 143.75L808.5 133.5C831.144 133.5 849.5 141.923 849.5 152.313Z" fill="#447F2E" fill-rule="evenodd"/><path d="M849.5 162.563C849.5 152.173 831.144 143.75 808.5 143.75L808.5 133.5C831.144 133.5 849.5 141.923 849.5 152.313L849.5 162.563C849.5 171.141 836.852 178.633 818.75 180.778L818.75 185.903 808.5 176.25 818.75 165.403 818.75 170.528C832.862 168.856 843.979 163.872 847.949 157.438" stroke="#3B7327" stroke-width="2.66667" stroke-linejoin="round" stroke-miterlimit="10" fill="none" fill-rule="evenodd"/><path d="M828.5 147.5C828.5 136.454 841.26 127.5 857 127.5 872.74 127.5 885.5 136.454 885.5 147.5 885.5 158.546 872.74 167.5 857 167.5 841.26 167.5 828.5 158.546 828.5 147.5Z" stroke="#3B7327" stroke-width="2.66667" stroke-linejoin="round" stroke-miterlimit="10" fill="#FFFF00" fill-rule="evenodd"/><text font-family="Constantia,Constantia_MSFontService,sans-serif" font-weight="400" font-size="16" transform="translate(845.932 153)">D4</text></g></svg>