<svg width="1176" height="751" xmlns="http://www.w3.org/2000/svg" xmlns:xlink="http://www.w3.org/1999/xlink" overflow="hidden"><defs><clipPath id="clip0"><rect x="-1" y="6" width="1176" height="751"/></clipPath></defs><g clip-path="url(#clip0)" transform="translate(1 -6)"><rect x="395.5" y="116.5" width="156" height="89" stroke="#3B7327" stroke-width="2.66667" stroke-linejoin="round" stroke-miterlimit="10" fill="#D7E2DC"/><text font-family="Constantia,Constantia_MSFontService,sans-serif" font-weight="700" font-size="16" transform="translate(411.691 156)">Backend Service <tspan x="46.3733" y="19">App</tspan></text><path d="M0 0 0.87748 338.656" stroke="#FF0000" stroke-width="3.33333" stroke-linejoin="round" stroke-miterlimit="10" stroke-dasharray="13.3333 10" fill="none" fill-rule="evenodd" transform="matrix(-1 0 0 1 573.378 33.5001)"/><text fill="#FF0000" font-family="Constantia,Constantia_MSFontService,sans-serif" font-weight="400" font-size="24" transform="translate(397.631 52)">Healthcare <tspan x="0" y="29">Organization</tspan></text><path d="M4.24257e-07-0.5 117.063-0.499901 117.063 0.500099-4.24257e-07 0.5ZM115.73-3.9999 123.73 0.000104987 115.73 4.0001Z" fill="#3B7426" transform="matrix(-1 0 0 1 395.23 161.5)"/><path d="M305.5 163.5C305.5 152.454 318.26 143.5 334 143.5 349.74 143.5 362.5 152.454 362.5 163.5 362.5 174.546 349.74 183.5 334 183.5 318.26 183.5 305.5 174.546 305.5 163.5Z" stroke="#3B7327" stroke-width="2.66667" stroke-linejoin="round" stroke-miterlimit="10" fill="#FFFF00" fill-rule="evenodd"/><text font-family="Constantia,Constantia_MSFontService,sans-serif" font-weight="400" font-size="16" transform="translate(323.887 168)">R6</text><rect x="666.5" y="47.5001" width="156" height="89" stroke="#3B7327" stroke-width="2.66667" stroke-linejoin="round" stroke-miterlimit="10" fill="#D7E2DC"/><text font-family="Constantia,Constantia_MSFontService,sans-serif" font-weight="700" font-size="16" transform="translate(692.566 87)">Trusted Third <tspan x="31.8933" y="19">Party</tspan></text><rect x="762.5" y="274.5" width="156" height="89" stroke="#3B7327" stroke-width="2.66667" stroke-linejoin="round" stroke-miterlimit="10" fill="#D7E2DC"/><text font-family="Constantia,Constantia_MSFontService,sans-serif" font-weight="700" font-size="16" transform="translate(785.183 314)">PHA/Research <tspan x="4.26666" y="19">Organization</tspan></text><path d="M0 0 486.444 0.000104987" stroke="#FF0000" stroke-width="3.33333" stroke-linejoin="round" stroke-miterlimit="10" stroke-dasharray="13.3333 10" fill="none" fill-rule="evenodd" transform="matrix(-1 0 0 1 1075.94 248.5)"/><path d="M6.66666-0.5 57.6542-0.5C57.9303-0.5 58.1542-0.276142 58.1542 0L58.1542 69.1481 57.6542 68.6481 115.308 68.6481 115.308 69.6481 57.6542 69.6481C57.378 69.6481 57.1542 69.4243 57.1542 69.1481L57.1542 0 57.6542 0.5 6.66666 0.5ZM8 4 0 0 8-4Z" fill="#3B7426" transform="matrix(-1 1.22465e-16 1.22465e-16 1 666.808 92.5001)"/><text fill="#FF0000" font-family="Constantia,Constantia_MSFontService,sans-serif" font-weight="400" font-size="24" transform="translate(754.342 36)">Trusted Third Party<tspan x="143.258" y="431">PHA / Research </tspan><tspan x="143.258" y="460">Organization</tspan></text><path d="M599.5 125.5C599.5 114.454 612.26 105.5 628 105.5 643.74 105.5 656.5 114.454 656.5 125.5 656.5 136.546 643.74 145.5 628 145.5 612.26 145.5 599.5 136.546 599.5 125.5Z" stroke="#3B7327" stroke-width="2.66667" stroke-linejoin="round" stroke-miterlimit="10" fill="#FFFF00" fill-rule="evenodd"/><text font-family="Constantia,Constantia_MSFontService,sans-serif" font-weight="400" font-size="16" transform="translate(618.731 130)">R2<tspan font-weight="700" font-size="19" x="-608.113" y="277">Description of Interaction Steps:</tspan></text><path d="M10.6185 407.554 154.118 407.554 297.618 407.554 297.618 408.554 154.118 408.554 10.6185 408.554Z" fill-rule="evenodd"/><text font-family="Constantia,Constantia_MSFontService,sans-serif" font-weight="400" font-size="19" transform="translate(10.6185 430)">R1. The PHA/Research Organization analyzes the data received from the Data Submission <tspan x="0" y="22">workflow and crafts a response to be sent back to submitting Healthcare Organization.</tspan><tspan x="0" y="67">R2. The Backend Service App queries the TTP or the PHA to look for the response to a </tspan><tspan x="0" y="89">submitted report and receives the response in a synchronous manner when response is </tspan><tspan x="0" y="112">found.</tspan><tspan x="0" y="157">R3. The Trusted Third Party queries the PHA to look for the response to a submitted report </tspan><tspan x="0" y="179">and receives the response in a synchronous manner when response is found.</tspan><tspan x="0" y="224">R4, R5. The Backend Service App receives the Response and re</tspan><tspan x="497.967" y="224">-</tspan><tspan x="504.633" y="224">identifies the data as needed.</tspan><tspan x="0" y="269">R6. The Backend Service App forwards the response back to the EHR.</tspan></text><path d="M755.445 319.606 656.806 319.606C656.53 319.606 656.306 319.382 656.306 319.106L656.306 161.5 656.806 162 551.5 162 551.5 161 656.806 161C657.082 161 657.306 161.224 657.306 161.5L657.306 319.106 656.806 318.606 755.445 318.606ZM754.112 315.106 762.112 319.106 754.112 323.106Z" fill="#3B7426"/><path d="M6.66666-0.5 68.7518-0.5C69.0279-0.5 69.2518-0.276142 69.2518 0L69.2518 95.3033 68.7518 94.8033 137.504 94.8033 137.504 95.8033 68.7518 95.8033C68.4756 95.8033 68.2518 95.5794 68.2518 95.3033L68.2518 0 68.7518 0.5 6.66666 0.5ZM8 4 0 0 8-4Z" fill="#3B7426" transform="matrix(-1.83697e-16 -1 -1 1.83697e-16 839.803 274.004)"/><path d="M903.5 336.5C903.5 342.023 923.2 346.5 947.5 346.5 971.801 346.5 991.5 342.023 991.5 336.5L991.5 396.5C991.5 402.023 971.801 406.5 947.5 406.5 923.2 406.5 903.5 402.023 903.5 396.5Z" fill="#549E39" fill-rule="evenodd"/><path d="M903.5 336.5C903.5 330.977 923.2 326.5 947.5 326.5 971.801 326.5 991.5 330.977 991.5 336.5 991.5 342.023 971.801 346.5 947.5 346.5 923.2 346.5 903.5 342.023 903.5 336.5Z" fill="#98C588" fill-rule="evenodd"/><path d="M991.5 336.5C991.5 342.023 971.801 346.5 947.5 346.5 923.2 346.5 903.5 342.023 903.5 336.5 903.5 330.977 923.2 326.5 947.5 326.5 971.801 326.5 991.5 330.977 991.5 336.5L991.5 396.5C991.5 402.023 971.801 406.5 947.5 406.5 923.2 406.5 903.5 402.023 903.5 396.5L903.5 336.5" stroke="#3B7327" stroke-width="2.66667" stroke-linejoin="round" stroke-miterlimit="10" fill="none" fill-rule="evenodd"/><text fill="#FFFFFF" font-family="Constantia,Constantia_MSFontService,sans-serif" font-weight="400" font-size="15" transform="translate(932.16 367)">Data <tspan x="-19.1667" y="17">Repository</tspan></text><path d="M812.5 78.0001C812.5 81.59 833.99 84.5002 860.5 84.5002 887.01 84.5002 908.5 81.59 908.5 78.0001L908.5 117C908.5 120.59 887.01 123.5 860.5 123.5 833.99 123.5 812.5 120.59 812.5 117Z" fill="#549E39" fill-rule="evenodd"/><path d="M812.5 78.0001C812.5 74.4102 833.99 71.5001 860.5 71.5001 887.01 71.5001 908.5 74.4102 908.5 78.0001 908.5 81.59 887.01 84.5002 860.5 84.5002 833.99 84.5002 812.5 81.59 812.5 78.0001Z" fill="#98C588" fill-rule="evenodd"/><path d="M908.5 78.0001C908.5 81.59 887.01 84.5002 860.5 84.5002 833.99 84.5002 812.5 81.59 812.5 78.0001 812.5 74.4102 833.99 71.5001 860.5 71.5001 887.01 71.5001 908.5 74.4102 908.5 78.0001L908.5 117C908.5 120.59 887.01 123.5 860.5 123.5 833.99 123.5 812.5 120.59 812.5 117L812.5 78.0001" stroke="#3B7327" stroke-width="2.66667" stroke-linejoin="round" stroke-miterlimit="10" fill="none" fill-rule="evenodd"/><text fill="#FFFFFF" font-family="Constantia,Constantia_MSFontService,sans-serif" font-weight="400" font-size="15" transform="translate(844.841 97)">Data <tspan x="-19.1667" y="17">Repository</tspan></text><path d="M631.5 289.5C631.5 278.454 644.26 269.5 660 269.5 675.74 269.5 688.5 278.454 688.5 289.5 688.5 300.546 675.74 309.5 660 309.5 644.26 309.5 631.5 300.546 631.5 289.5Z" stroke="#3B7327" stroke-width="2.66667" stroke-linejoin="round" stroke-miterlimit="10" fill="#FFFF00" fill-rule="evenodd"/><text font-family="Constantia,Constantia_MSFontService,sans-serif" font-weight="400" font-size="16" transform="translate(650.761 295)">R2</text><path d="M767.5 202.5C767.5 191.454 780.26 182.5 796 182.5 811.74 182.5 824.5 191.454 824.5 202.5 824.5 213.546 811.74 222.5 796 222.5 780.26 222.5 767.5 213.546 767.5 202.5Z" stroke="#3B7327" stroke-width="2.66667" stroke-linejoin="round" stroke-miterlimit="10" fill="#FFFF00" fill-rule="evenodd"/><text font-family="Constantia,Constantia_MSFontService,sans-serif" font-weight="400" font-size="16" transform="translate(786.572 207)">R3</text><rect x="169.5" y="133.5" width="101" height="56" stroke="#3B7327" stroke-width="2.66667" stroke-linejoin="round" stroke-miterlimit="10" fill="#D7E2DC"/><text font-family="Constantia,Constantia_MSFontService,sans-serif" font-weight="700" font-size="16" transform="translate(202.588 147)">EHR <tspan x="-5.91335" y="19">(FHIR </tspan><tspan x="-17" y="38">Enabled)</tspan></text><path d="M0.5-3.95388e-07 0.5001 126.098-0.4999 126.098-0.5 3.95388e-07ZM4.0001 124.764 0.000104987 132.764-3.9999 124.764Z" fill="#3B7426" transform="matrix(1 0 0 -1 840.5 496.264)"/><path d="M815.5 426.5C815.5 415.454 828.036 406.5 843.5 406.5 858.964 406.5 871.5 415.454 871.5 426.5 871.5 437.546 858.964 446.5 843.5 446.5 828.036 446.5 815.5 437.546 815.5 426.5Z" stroke="#3B7327" stroke-width="2.66667" stroke-linejoin="round" stroke-miterlimit="10" fill="#FFFF00" fill-rule="evenodd"/><text font-family="Constantia,Constantia_MSFontService,sans-serif" font-weight="400" font-size="16" transform="translate(835.424 432)">R1</text><rect x="398.5" y="283.5" width="156" height="59" stroke="#3B7327" stroke-width="2.66667" stroke-linejoin="round" stroke-miterlimit="10" fill="#D7E2DC"/><text font-family="Constantia,Constantia_MSFontService,sans-serif" font-weight="700" font-size="16" transform="translate(435.04 308)">Data/Trust <tspan x="9.82666" y="19">Services</tspan></text><path d="M430 205.5 430 276.288 429 276.288 429 205.5ZM433.5 274.955 429.5 282.955 425.5 274.955Z" fill="#3B7426"/><path d="M506.104 282.956 506.009 212.167 507.009 212.166 507.104 282.954ZM502.511 213.505 506.5 205.5 510.511 213.495Z" fill="#3B7426"/><path d="M398.5 248.5C398.5 237.454 412.827 228.5 430.5 228.5 448.173 228.5 462.5 237.454 462.5 248.5 462.5 259.546 448.173 268.5 430.5 268.5 412.827 268.5 398.5 259.546 398.5 248.5Z" stroke="#3B7327" stroke-width="2.66667" stroke-linejoin="round" stroke-miterlimit="10" fill="#FFFF00" fill-rule="evenodd"/><text font-family="Constantia,Constantia_MSFontService,sans-serif" font-weight="400" font-size="16" transform="translate(421.032 253)">R4</text><path d="M479.5 248.5C479.5 237.454 493.827 228.5 511.5 228.5 529.173 228.5 543.5 237.454 543.5 248.5 543.5 259.546 529.173 268.5 511.5 268.5 493.827 268.5 479.5 259.546 479.5 248.5Z" stroke="#3B7327" stroke-width="2.66667" stroke-linejoin="round" stroke-miterlimit="10" fill="#FFFF00" fill-rule="evenodd"/><text font-family="Constantia,Constantia_MSFontService,sans-serif" font-weight="400" font-size="16" transform="translate(502.273 253)">R5</text></g></svg>